%TF.GenerationSoftware,KiCad,Pcbnew,7.0.5-4d25ed1034~172~ubuntu22.04.1*%
%TF.CreationDate,2023-06-12T10:59:29-06:00*%
%TF.ProjectId,sao-2023-foot,73616f2d-3230-4323-932d-666f6f742e6b,rev?*%
%TF.SameCoordinates,Original*%
%TF.FileFunction,Copper,L2,Bot*%
%TF.FilePolarity,Positive*%
%FSLAX46Y46*%
G04 Gerber Fmt 4.6, Leading zero omitted, Abs format (unit mm)*
G04 Created by KiCad (PCBNEW 7.0.5-4d25ed1034~172~ubuntu22.04.1) date 2023-06-12 10:59:29*
%MOMM*%
%LPD*%
G01*
G04 APERTURE LIST*
G04 Aperture macros list*
%AMRoundRect*
0 Rectangle with rounded corners*
0 $1 Rounding radius*
0 $2 $3 $4 $5 $6 $7 $8 $9 X,Y pos of 4 corners*
0 Add a 4 corners polygon primitive as box body*
4,1,4,$2,$3,$4,$5,$6,$7,$8,$9,$2,$3,0*
0 Add four circle primitives for the rounded corners*
1,1,$1+$1,$2,$3*
1,1,$1+$1,$4,$5*
1,1,$1+$1,$6,$7*
1,1,$1+$1,$8,$9*
0 Add four rect primitives between the rounded corners*
20,1,$1+$1,$2,$3,$4,$5,0*
20,1,$1+$1,$4,$5,$6,$7,0*
20,1,$1+$1,$6,$7,$8,$9,0*
20,1,$1+$1,$8,$9,$2,$3,0*%
G04 Aperture macros list end*
%TA.AperFunction,SMDPad,CuDef*%
%ADD10RoundRect,0.250000X-0.625000X0.400000X-0.625000X-0.400000X0.625000X-0.400000X0.625000X0.400000X0*%
%TD*%
%TA.AperFunction,SMDPad,CuDef*%
%ADD11R,1.000000X3.000000*%
%TD*%
%TA.AperFunction,SMDPad,CuDef*%
%ADD12R,1.500000X2.600000*%
%TD*%
%TA.AperFunction,Conductor*%
%ADD13C,0.250000*%
%TD*%
G04 APERTURE END LIST*
D10*
%TO.P,R1,1*%
%TO.N,Net-(D1-A)*%
X145135600Y-93496800D03*
%TO.P,R1,2*%
%TO.N,3V3*%
X145135600Y-96596800D03*
%TD*%
D11*
%TO.P,J1,1,Pin_1*%
%TO.N,3V3*%
X151968200Y-115793200D03*
%TO.P,J1,2,Pin_2*%
%TO.N,GND*%
X151968200Y-120833200D03*
%TO.P,J1,3,Pin_3*%
%TO.N,unconnected-(J1-Pin_3-Pad3)*%
X149428200Y-115793200D03*
%TO.P,J1,4,Pin_4*%
%TO.N,unconnected-(J1-Pin_4-Pad4)*%
X149428200Y-120833200D03*
%TO.P,J1,5,Pin_5*%
%TO.N,unconnected-(J1-Pin_5-Pad5)*%
X146888200Y-115793200D03*
%TO.P,J1,6,Pin_6*%
%TO.N,unconnected-(J1-Pin_6-Pad6)*%
X146888200Y-120833200D03*
%TD*%
D12*
%TO.P,D1,1,K*%
%TO.N,GND*%
X150628800Y-78282800D03*
%TO.P,D1,2,A*%
%TO.N,Net-(D1-A)*%
X145128800Y-78282800D03*
%TD*%
D13*
%TO.N,Net-(D1-A)*%
X145135600Y-78333600D02*
X145135600Y-93496800D01*
%TO.N,3V3*%
X151968200Y-112420400D02*
X145135600Y-105587800D01*
X151968200Y-115793200D02*
X151968200Y-112420400D01*
X145135600Y-105587800D02*
X145135600Y-96596800D01*
%TD*%
%TA.AperFunction,Conductor*%
%TO.N,GND*%
G36*
X160225307Y-59151883D02*
G01*
X161228133Y-59217900D01*
X161246252Y-59220446D01*
X162163679Y-59419318D01*
X162183048Y-59425208D01*
X163040360Y-59764574D01*
X163058289Y-59773403D01*
X163876708Y-60262072D01*
X163891182Y-60272178D01*
X164381814Y-60669576D01*
X164694502Y-60922844D01*
X164697799Y-60925713D01*
X164824758Y-61044291D01*
X164827396Y-61046907D01*
X165455007Y-61707748D01*
X165459667Y-61713267D01*
X165987237Y-62417846D01*
X165991169Y-62423780D01*
X166461603Y-63230792D01*
X166463304Y-63233914D01*
X166550051Y-63404514D01*
X166551954Y-63408625D01*
X167025655Y-64538826D01*
X167028123Y-64545879D01*
X167372442Y-65759727D01*
X167373926Y-65766304D01*
X167564782Y-66894027D01*
X167590259Y-67044561D01*
X167590988Y-67050740D01*
X167680091Y-68372409D01*
X167680208Y-68378303D01*
X167642902Y-69722283D01*
X167642476Y-69728015D01*
X167479657Y-71073237D01*
X167478698Y-71078928D01*
X167191321Y-72404332D01*
X167189780Y-72410089D01*
X166778854Y-73694628D01*
X166776628Y-73700533D01*
X166242749Y-74924275D01*
X166240774Y-74928383D01*
X166019888Y-75347650D01*
X166018278Y-75350517D01*
X165885564Y-75572937D01*
X165581014Y-76083335D01*
X165578470Y-76087255D01*
X165098658Y-76768889D01*
X165095932Y-76772478D01*
X164528285Y-77465845D01*
X164526797Y-77467595D01*
X164357965Y-77658898D01*
X163877314Y-78196400D01*
X163871469Y-78201439D01*
X163868109Y-78206183D01*
X163866836Y-78207806D01*
X163866129Y-78208902D01*
X163866906Y-78210656D01*
X163866912Y-78210672D01*
X163867864Y-78212379D01*
X163870547Y-78217914D01*
X163875896Y-78224135D01*
X164027269Y-78460318D01*
X164028765Y-78462776D01*
X164138979Y-78653842D01*
X164140098Y-78655868D01*
X164293430Y-78946205D01*
X164294040Y-78947392D01*
X164462440Y-79283589D01*
X164511234Y-79384442D01*
X164513174Y-79388888D01*
X164891027Y-80356246D01*
X164893522Y-80364154D01*
X165150332Y-81419619D01*
X165151639Y-81426813D01*
X165287401Y-82545376D01*
X165287848Y-82552099D01*
X165301855Y-83706358D01*
X165301593Y-83712866D01*
X165193297Y-84875455D01*
X165192336Y-84881986D01*
X164961279Y-86025709D01*
X164959619Y-86032133D01*
X164645554Y-87025122D01*
X164643706Y-87030187D01*
X164316796Y-87818131D01*
X164314960Y-87822148D01*
X163933490Y-88583461D01*
X163931281Y-88587488D01*
X163484275Y-89335615D01*
X163481856Y-89339351D01*
X162958005Y-90088296D01*
X162955579Y-90091534D01*
X162343562Y-90855209D01*
X162341310Y-90857864D01*
X161629846Y-91650065D01*
X161627884Y-91652152D01*
X160982158Y-92307563D01*
X160805766Y-92486600D01*
X160804142Y-92488188D01*
X159860203Y-93378582D01*
X159858918Y-93379760D01*
X158781661Y-94340123D01*
X158623699Y-94477362D01*
X157883968Y-95124258D01*
X157883794Y-95124400D01*
X157882322Y-95125698D01*
X157879416Y-95128301D01*
X157879293Y-95128426D01*
X157266757Y-95679890D01*
X157264723Y-95681462D01*
X157260330Y-95685646D01*
X157259198Y-95686698D01*
X157258612Y-95687228D01*
X157257996Y-95687856D01*
X156744968Y-96172782D01*
X156743918Y-96173672D01*
X156743163Y-96174439D01*
X156741712Y-96175864D01*
X156740324Y-96177182D01*
X156739353Y-96178320D01*
X156319491Y-96606258D01*
X156318276Y-96607367D01*
X156317828Y-96607870D01*
X156316154Y-96609672D01*
X156315759Y-96610080D01*
X156314766Y-96611337D01*
X155972469Y-97000475D01*
X155971157Y-97001800D01*
X155970698Y-97002386D01*
X155969167Y-97004262D01*
X155968557Y-97004978D01*
X155967506Y-97006565D01*
X155689669Y-97372627D01*
X155688328Y-97374238D01*
X155687300Y-97375724D01*
X155686281Y-97377519D01*
X155459036Y-97737272D01*
X155457438Y-97739546D01*
X155456937Y-97740422D01*
X155455798Y-97742955D01*
X155266399Y-98111517D01*
X155265387Y-98113255D01*
X155264145Y-98115925D01*
X155263474Y-98117811D01*
X155098529Y-98511232D01*
X155097743Y-98512821D01*
X155097429Y-98513688D01*
X155096478Y-98516145D01*
X155096330Y-98516502D01*
X155095877Y-98518013D01*
X154960992Y-98895630D01*
X154960351Y-98897160D01*
X154960196Y-98897675D01*
X154959432Y-98900031D01*
X154959147Y-98900851D01*
X154958764Y-98902518D01*
X154836270Y-99320127D01*
X154835364Y-99322777D01*
X154835327Y-99322932D01*
X154834924Y-99325712D01*
X154754852Y-99747110D01*
X154754311Y-99749346D01*
X154754062Y-99751070D01*
X154753947Y-99753362D01*
X154705497Y-100243623D01*
X154705247Y-100245135D01*
X154705144Y-100246833D01*
X154705006Y-100248654D01*
X154704871Y-100250132D01*
X154704878Y-100251554D01*
X154690483Y-100512508D01*
X154690275Y-100514198D01*
X154690258Y-100515697D01*
X154690194Y-100517896D01*
X154690113Y-100519596D01*
X154690228Y-100521304D01*
X154687382Y-101241876D01*
X154687279Y-101244358D01*
X154687628Y-101246778D01*
X154757059Y-101895601D01*
X154757207Y-101897448D01*
X154757693Y-101899184D01*
X154911304Y-102505704D01*
X154911661Y-102507241D01*
X154912373Y-102508827D01*
X155161590Y-103102661D01*
X155162345Y-103104620D01*
X155163491Y-103106449D01*
X155519419Y-103717747D01*
X155520733Y-103720299D01*
X155521192Y-103721007D01*
X155522959Y-103723230D01*
X155997319Y-104383403D01*
X155998279Y-104384932D01*
X155998618Y-104385356D01*
X156000610Y-104387986D01*
X156001152Y-104388743D01*
X156002430Y-104390134D01*
X156293418Y-104755266D01*
X157454144Y-106222568D01*
X157455552Y-106224420D01*
X157775420Y-106662081D01*
X158476652Y-107621546D01*
X158478257Y-107623850D01*
X159368219Y-108965381D01*
X159369948Y-108968143D01*
X160136596Y-110267811D01*
X160138379Y-110271052D01*
X160789568Y-111542636D01*
X160791293Y-111546293D01*
X161334898Y-112803642D01*
X161336452Y-112807603D01*
X161780445Y-114064906D01*
X161781544Y-114068331D01*
X162027522Y-114919125D01*
X162028626Y-114923551D01*
X162288487Y-116156941D01*
X162316921Y-116291899D01*
X162317870Y-116297798D01*
X162474870Y-117702489D01*
X162475244Y-117708259D01*
X162500682Y-119116300D01*
X162500508Y-119122198D01*
X162475593Y-119444538D01*
X162394040Y-120499622D01*
X162393225Y-120505934D01*
X162154334Y-121820392D01*
X162153496Y-121824288D01*
X162108631Y-122004460D01*
X162107584Y-122008170D01*
X161676133Y-123372873D01*
X161673696Y-123379312D01*
X161111299Y-124647408D01*
X161108014Y-124653791D01*
X160419181Y-125820533D01*
X160415032Y-125826688D01*
X159604632Y-126886065D01*
X159599663Y-126891798D01*
X158672500Y-127837801D01*
X158666811Y-127842930D01*
X157627632Y-128669526D01*
X157621376Y-128673902D01*
X156736327Y-129215135D01*
X156473673Y-129375755D01*
X156469654Y-129378012D01*
X156198868Y-129517065D01*
X156195354Y-129518732D01*
X155063767Y-130012811D01*
X155058266Y-130014908D01*
X153837744Y-130414958D01*
X153832588Y-130416404D01*
X152501050Y-130728718D01*
X152496748Y-130729568D01*
X151195332Y-130939156D01*
X151192568Y-130939538D01*
X150682568Y-130998279D01*
X150680705Y-130998465D01*
X150195481Y-131039557D01*
X150193507Y-131039693D01*
X149759064Y-131062554D01*
X149756523Y-131062636D01*
X149398931Y-131066775D01*
X149394618Y-131066674D01*
X149222178Y-131056635D01*
X149140677Y-131051890D01*
X149138758Y-131051657D01*
X149138447Y-131051657D01*
X149134892Y-131051555D01*
X149134679Y-131051542D01*
X149132762Y-131051662D01*
X148580646Y-131052446D01*
X148580023Y-131052410D01*
X148576963Y-131052451D01*
X148573850Y-131052479D01*
X148573056Y-131052545D01*
X148505784Y-131054189D01*
X148263797Y-131060103D01*
X148260863Y-131060105D01*
X147879673Y-131051374D01*
X147877474Y-131051285D01*
X147829832Y-131048497D01*
X147459357Y-131026820D01*
X147457198Y-131026656D01*
X147112029Y-130994339D01*
X147035266Y-130987152D01*
X147032816Y-130986873D01*
X146904040Y-130969614D01*
X146683520Y-130940059D01*
X146678609Y-130939198D01*
X145329455Y-130646032D01*
X145322393Y-130644053D01*
X144913056Y-130502753D01*
X144055416Y-130206703D01*
X144048393Y-130203786D01*
X142868408Y-129626395D01*
X142861646Y-129622543D01*
X141774508Y-128909430D01*
X141768231Y-128904719D01*
X141687722Y-128835926D01*
X140779747Y-128060084D01*
X140774166Y-128054672D01*
X139890235Y-127082701D01*
X139885464Y-127076757D01*
X139111676Y-125981072D01*
X139108408Y-125975923D01*
X138663677Y-125191991D01*
X138661725Y-125188260D01*
X138252397Y-124336812D01*
X138250776Y-124333138D01*
X137904903Y-123473355D01*
X137903429Y-123469282D01*
X137615332Y-122576844D01*
X137614164Y-122572751D01*
X137604457Y-122533699D01*
X137559531Y-122352952D01*
X146187700Y-122352952D01*
X146199331Y-122411429D01*
X146199332Y-122411430D01*
X146243647Y-122477752D01*
X146309969Y-122522067D01*
X146309970Y-122522068D01*
X146368447Y-122533699D01*
X146368450Y-122533700D01*
X146368452Y-122533700D01*
X147407950Y-122533700D01*
X147407951Y-122533699D01*
X147422768Y-122530752D01*
X147466429Y-122522068D01*
X147466429Y-122522067D01*
X147466431Y-122522067D01*
X147532752Y-122477752D01*
X147577067Y-122411431D01*
X147577067Y-122411429D01*
X147577068Y-122411429D01*
X147588699Y-122352952D01*
X148727700Y-122352952D01*
X148739331Y-122411429D01*
X148739332Y-122411430D01*
X148783647Y-122477752D01*
X148849969Y-122522067D01*
X148849970Y-122522068D01*
X148908447Y-122533699D01*
X148908450Y-122533700D01*
X148908452Y-122533700D01*
X149947950Y-122533700D01*
X149947951Y-122533699D01*
X149962768Y-122530752D01*
X150006429Y-122522068D01*
X150006429Y-122522067D01*
X150006431Y-122522067D01*
X150072752Y-122477752D01*
X150117067Y-122411431D01*
X150117067Y-122411429D01*
X150117068Y-122411429D01*
X150123115Y-122381027D01*
X150968199Y-122381027D01*
X150968200Y-122381044D01*
X150974601Y-122440572D01*
X150974603Y-122440579D01*
X151024845Y-122575286D01*
X151024849Y-122575293D01*
X151111009Y-122690387D01*
X151111012Y-122690390D01*
X151226106Y-122776550D01*
X151226113Y-122776554D01*
X151360820Y-122826796D01*
X151360827Y-122826798D01*
X151420355Y-122833199D01*
X151420372Y-122833200D01*
X151718200Y-122833200D01*
X151718200Y-121083200D01*
X152218200Y-121083200D01*
X152218200Y-122833200D01*
X152516028Y-122833200D01*
X152516044Y-122833199D01*
X152575572Y-122826798D01*
X152575579Y-122826796D01*
X152710286Y-122776554D01*
X152710293Y-122776550D01*
X152825387Y-122690390D01*
X152825390Y-122690387D01*
X152911550Y-122575293D01*
X152911554Y-122575286D01*
X152961796Y-122440579D01*
X152961798Y-122440572D01*
X152968199Y-122381044D01*
X152968199Y-122381027D01*
X152968200Y-121083200D01*
X152218200Y-121083200D01*
X151718200Y-121083200D01*
X150968200Y-121083200D01*
X150968199Y-122381027D01*
X150123115Y-122381027D01*
X150128699Y-122352952D01*
X150128700Y-122352950D01*
X150128700Y-119313449D01*
X150128699Y-119313447D01*
X150123115Y-119285372D01*
X150968199Y-119285372D01*
X150968200Y-120583200D01*
X151718200Y-120583200D01*
X151718200Y-118833200D01*
X152218200Y-118833200D01*
X152218200Y-120583200D01*
X152968200Y-120583200D01*
X152968200Y-120583199D01*
X152968199Y-119285372D01*
X152968199Y-119285355D01*
X152961798Y-119225827D01*
X152961796Y-119225820D01*
X152911554Y-119091113D01*
X152911550Y-119091106D01*
X152825390Y-118976012D01*
X152825387Y-118976009D01*
X152710293Y-118889849D01*
X152710286Y-118889845D01*
X152575579Y-118839603D01*
X152575572Y-118839601D01*
X152516044Y-118833200D01*
X152218200Y-118833200D01*
X151718200Y-118833200D01*
X151420355Y-118833200D01*
X151360827Y-118839601D01*
X151360820Y-118839603D01*
X151226113Y-118889845D01*
X151226106Y-118889849D01*
X151111012Y-118976009D01*
X151111009Y-118976012D01*
X151024849Y-119091106D01*
X151024845Y-119091113D01*
X150974603Y-119225820D01*
X150974601Y-119225827D01*
X150968200Y-119285355D01*
X150968199Y-119285372D01*
X150123115Y-119285372D01*
X150117068Y-119254970D01*
X150117067Y-119254969D01*
X150072752Y-119188647D01*
X150006430Y-119144332D01*
X150006429Y-119144331D01*
X149947952Y-119132700D01*
X149947948Y-119132700D01*
X148908452Y-119132700D01*
X148908447Y-119132700D01*
X148849970Y-119144331D01*
X148849969Y-119144332D01*
X148783647Y-119188647D01*
X148739332Y-119254969D01*
X148739331Y-119254970D01*
X148727700Y-119313447D01*
X148727700Y-122352952D01*
X147588699Y-122352952D01*
X147588700Y-122352950D01*
X147588700Y-119313449D01*
X147588699Y-119313447D01*
X147577068Y-119254970D01*
X147577067Y-119254969D01*
X147532752Y-119188647D01*
X147466430Y-119144332D01*
X147466429Y-119144331D01*
X147407952Y-119132700D01*
X147407948Y-119132700D01*
X146368452Y-119132700D01*
X146368447Y-119132700D01*
X146309970Y-119144331D01*
X146309969Y-119144332D01*
X146243647Y-119188647D01*
X146199332Y-119254969D01*
X146199331Y-119254970D01*
X146187700Y-119313447D01*
X146187700Y-122352952D01*
X137559531Y-122352952D01*
X137378087Y-121622961D01*
X137377279Y-121619220D01*
X137187549Y-120587373D01*
X137187050Y-120584205D01*
X137038078Y-119445757D01*
X137037805Y-119443270D01*
X137026169Y-119313449D01*
X136924004Y-118173647D01*
X136923899Y-118172315D01*
X136881277Y-117528360D01*
X136881276Y-117528359D01*
X136881261Y-117528142D01*
X136879796Y-117506001D01*
X136879775Y-117505916D01*
X136866870Y-117312952D01*
X146187700Y-117312952D01*
X146199331Y-117371429D01*
X146199332Y-117371430D01*
X146243647Y-117437752D01*
X146309969Y-117482067D01*
X146309970Y-117482068D01*
X146368447Y-117493699D01*
X146368450Y-117493700D01*
X146368452Y-117493700D01*
X147407950Y-117493700D01*
X147407951Y-117493699D01*
X147422768Y-117490752D01*
X147466429Y-117482068D01*
X147466429Y-117482067D01*
X147466431Y-117482067D01*
X147532752Y-117437752D01*
X147577067Y-117371431D01*
X147577067Y-117371429D01*
X147577068Y-117371429D01*
X147588699Y-117312952D01*
X148727700Y-117312952D01*
X148739331Y-117371429D01*
X148739332Y-117371430D01*
X148783647Y-117437752D01*
X148849969Y-117482067D01*
X148849970Y-117482068D01*
X148908447Y-117493699D01*
X148908450Y-117493700D01*
X148908452Y-117493700D01*
X149947950Y-117493700D01*
X149947951Y-117493699D01*
X149962768Y-117490752D01*
X150006429Y-117482068D01*
X150006429Y-117482067D01*
X150006431Y-117482067D01*
X150072752Y-117437752D01*
X150117067Y-117371431D01*
X150117067Y-117371429D01*
X150117068Y-117371429D01*
X150128699Y-117312952D01*
X150128700Y-117312950D01*
X150128700Y-114273449D01*
X150128699Y-114273447D01*
X150117068Y-114214970D01*
X150117067Y-114214969D01*
X150072752Y-114148647D01*
X150006430Y-114104332D01*
X150006429Y-114104331D01*
X149947952Y-114092700D01*
X149947948Y-114092700D01*
X148908452Y-114092700D01*
X148908447Y-114092700D01*
X148849970Y-114104331D01*
X148849969Y-114104332D01*
X148783647Y-114148647D01*
X148739332Y-114214969D01*
X148739331Y-114214970D01*
X148727700Y-114273447D01*
X148727700Y-117312952D01*
X147588699Y-117312952D01*
X147588700Y-117312950D01*
X147588700Y-114273449D01*
X147588699Y-114273447D01*
X147577068Y-114214970D01*
X147577067Y-114214969D01*
X147532752Y-114148647D01*
X147466430Y-114104332D01*
X147466429Y-114104331D01*
X147407952Y-114092700D01*
X147407948Y-114092700D01*
X146368452Y-114092700D01*
X146368447Y-114092700D01*
X146309970Y-114104331D01*
X146309969Y-114104332D01*
X146243647Y-114148647D01*
X146199332Y-114214969D01*
X146199331Y-114214970D01*
X146187700Y-114273447D01*
X146187700Y-117312952D01*
X136866870Y-117312952D01*
X136804149Y-116375139D01*
X136804290Y-116372807D01*
X136803152Y-116359967D01*
X136803033Y-116358411D01*
X136802529Y-116350473D01*
X136802124Y-116348183D01*
X136714386Y-115341315D01*
X136714458Y-115337717D01*
X136713396Y-115329335D01*
X136713106Y-115326540D01*
X136712580Y-115320059D01*
X136711922Y-115316899D01*
X136606137Y-114416619D01*
X136606060Y-114412566D01*
X136604989Y-114406141D01*
X136604524Y-114402791D01*
X136604078Y-114398785D01*
X136603253Y-114395277D01*
X136557116Y-114104331D01*
X136472124Y-113568354D01*
X136471807Y-113564339D01*
X136470975Y-113560455D01*
X136470289Y-113556691D01*
X136470208Y-113556153D01*
X136469670Y-113554253D01*
X136306152Y-112771234D01*
X136305645Y-112766873D01*
X136304341Y-112762021D01*
X136303448Y-112758233D01*
X136302809Y-112755080D01*
X136301481Y-112751226D01*
X136100279Y-111989428D01*
X136099537Y-111985166D01*
X136098168Y-111980970D01*
X136097009Y-111976968D01*
X136096279Y-111974089D01*
X136094736Y-111970242D01*
X135959728Y-111546293D01*
X135848103Y-111195770D01*
X135847270Y-111192007D01*
X135845203Y-111186425D01*
X135844187Y-111183454D01*
X135842679Y-111178651D01*
X135841106Y-111175248D01*
X135837453Y-111165269D01*
X135543183Y-110361273D01*
X135542370Y-110357898D01*
X135538741Y-110349003D01*
X135537845Y-110346673D01*
X135535458Y-110340073D01*
X135533969Y-110337177D01*
X135175631Y-109448057D01*
X135175071Y-109446195D01*
X135171376Y-109437498D01*
X135170207Y-109434608D01*
X135169786Y-109433771D01*
X134970487Y-108966739D01*
X134819968Y-108614015D01*
X134396426Y-107623856D01*
X133985017Y-106662060D01*
X133234626Y-104840968D01*
X132564967Y-103138446D01*
X131972399Y-101542697D01*
X131971971Y-101541502D01*
X131452697Y-100040396D01*
X131452212Y-100038931D01*
X131225200Y-99322963D01*
X131002218Y-98619704D01*
X131001706Y-98618002D01*
X130617118Y-97268278D01*
X130616612Y-97266382D01*
X130570406Y-97081499D01*
X130562801Y-97051069D01*
X144060100Y-97051069D01*
X144062953Y-97081499D01*
X144062953Y-97081501D01*
X144107806Y-97209680D01*
X144107807Y-97209682D01*
X144188450Y-97318950D01*
X144297718Y-97399593D01*
X144340445Y-97414544D01*
X144425899Y-97444446D01*
X144456330Y-97447300D01*
X144456334Y-97447300D01*
X144686100Y-97447300D01*
X144753139Y-97466985D01*
X144798894Y-97519789D01*
X144810100Y-97571300D01*
X144810100Y-105570878D01*
X144809864Y-105576285D01*
X144806335Y-105616608D01*
X144816812Y-105655710D01*
X144817983Y-105660990D01*
X144825011Y-105700843D01*
X144826835Y-105705855D01*
X144833797Y-105722661D01*
X144836045Y-105727481D01*
X144836046Y-105727484D01*
X144850052Y-105747487D01*
X144859255Y-105760631D01*
X144862161Y-105765192D01*
X144882406Y-105800255D01*
X144913415Y-105826275D01*
X144917405Y-105829930D01*
X151606382Y-112518908D01*
X151639866Y-112580229D01*
X151642700Y-112606587D01*
X151642700Y-113968700D01*
X151623015Y-114035739D01*
X151570211Y-114081494D01*
X151518700Y-114092700D01*
X151448447Y-114092700D01*
X151389970Y-114104331D01*
X151389969Y-114104332D01*
X151323647Y-114148647D01*
X151279332Y-114214969D01*
X151279331Y-114214970D01*
X151267700Y-114273447D01*
X151267700Y-117312952D01*
X151279331Y-117371429D01*
X151279332Y-117371430D01*
X151323647Y-117437752D01*
X151389969Y-117482067D01*
X151389970Y-117482068D01*
X151448447Y-117493699D01*
X151448450Y-117493700D01*
X151448452Y-117493700D01*
X152487950Y-117493700D01*
X152487951Y-117493699D01*
X152502768Y-117490752D01*
X152546429Y-117482068D01*
X152546429Y-117482067D01*
X152546431Y-117482067D01*
X152612752Y-117437752D01*
X152657067Y-117371431D01*
X152657067Y-117371429D01*
X152657068Y-117371429D01*
X152668699Y-117312952D01*
X152668700Y-117312950D01*
X152668700Y-114273449D01*
X152668699Y-114273447D01*
X152657068Y-114214970D01*
X152657067Y-114214969D01*
X152612752Y-114148647D01*
X152546430Y-114104332D01*
X152546429Y-114104331D01*
X152487952Y-114092700D01*
X152487948Y-114092700D01*
X152417700Y-114092700D01*
X152350661Y-114073015D01*
X152304906Y-114020211D01*
X152293700Y-113968700D01*
X152293700Y-112437320D01*
X152293936Y-112431913D01*
X152297464Y-112391593D01*
X152286982Y-112352476D01*
X152285816Y-112347218D01*
X152278788Y-112307355D01*
X152278786Y-112307352D01*
X152278786Y-112307350D01*
X152276960Y-112302333D01*
X152270020Y-112285576D01*
X152267754Y-112280719D01*
X152267754Y-112280716D01*
X152244539Y-112247562D01*
X152241633Y-112242999D01*
X152221396Y-112207948D01*
X152221395Y-112207947D01*
X152221394Y-112207945D01*
X152190377Y-112181918D01*
X152186393Y-112178267D01*
X145497419Y-105489293D01*
X145463934Y-105427970D01*
X145461100Y-105401612D01*
X145461100Y-97571300D01*
X145480785Y-97504261D01*
X145533589Y-97458506D01*
X145585100Y-97447300D01*
X145814870Y-97447300D01*
X145845299Y-97444446D01*
X145845301Y-97444446D01*
X145909390Y-97422019D01*
X145973482Y-97399593D01*
X146082750Y-97318950D01*
X146163393Y-97209682D01*
X146185819Y-97145590D01*
X146208246Y-97081501D01*
X146208246Y-97081499D01*
X146211100Y-97051069D01*
X146211100Y-96142530D01*
X146208246Y-96112100D01*
X146208246Y-96112098D01*
X146163393Y-95983919D01*
X146163392Y-95983917D01*
X146082750Y-95874650D01*
X145973482Y-95794007D01*
X145973480Y-95794006D01*
X145845300Y-95749153D01*
X145814870Y-95746300D01*
X145814866Y-95746300D01*
X144456334Y-95746300D01*
X144456330Y-95746300D01*
X144425900Y-95749153D01*
X144425898Y-95749153D01*
X144297719Y-95794006D01*
X144297717Y-95794007D01*
X144188450Y-95874650D01*
X144107807Y-95983917D01*
X144107806Y-95983919D01*
X144062953Y-96112098D01*
X144062953Y-96112100D01*
X144060100Y-96142530D01*
X144060100Y-97051069D01*
X130562801Y-97051069D01*
X130343301Y-96172782D01*
X130293608Y-95973945D01*
X130293114Y-95971809D01*
X130255303Y-95794006D01*
X130027802Y-94724188D01*
X130027377Y-94721988D01*
X129893221Y-93951069D01*
X144060100Y-93951069D01*
X144062953Y-93981499D01*
X144062953Y-93981501D01*
X144107806Y-94109680D01*
X144107807Y-94109682D01*
X144188450Y-94218950D01*
X144297718Y-94299593D01*
X144340445Y-94314544D01*
X144425899Y-94344446D01*
X144456330Y-94347300D01*
X144456334Y-94347300D01*
X145814870Y-94347300D01*
X145845299Y-94344446D01*
X145845301Y-94344446D01*
X145909390Y-94322019D01*
X145973482Y-94299593D01*
X146082750Y-94218950D01*
X146163393Y-94109682D01*
X146185819Y-94045590D01*
X146208246Y-93981501D01*
X146208246Y-93981499D01*
X146211100Y-93951069D01*
X146211100Y-93042530D01*
X146208246Y-93012100D01*
X146208246Y-93012098D01*
X146163393Y-92883919D01*
X146163392Y-92883917D01*
X146082750Y-92774650D01*
X145973482Y-92694007D01*
X145973480Y-92694006D01*
X145845300Y-92649153D01*
X145814870Y-92646300D01*
X145814866Y-92646300D01*
X145585100Y-92646300D01*
X145518061Y-92626615D01*
X145472306Y-92573811D01*
X145461100Y-92522300D01*
X145461100Y-79907300D01*
X145480785Y-79840261D01*
X145533589Y-79794506D01*
X145585100Y-79783300D01*
X145898550Y-79783300D01*
X145898551Y-79783299D01*
X145913368Y-79780352D01*
X145957029Y-79771668D01*
X145957029Y-79771667D01*
X145957031Y-79771667D01*
X146023352Y-79727352D01*
X146067667Y-79661031D01*
X146067667Y-79661029D01*
X146067668Y-79661029D01*
X146079299Y-79602552D01*
X146079300Y-79602550D01*
X146079300Y-78282805D01*
X146511912Y-78282805D01*
X146530554Y-78507778D01*
X146585973Y-78726626D01*
X146676657Y-78933366D01*
X146800130Y-79122357D01*
X146828344Y-79153005D01*
X146948542Y-79283575D01*
X146953034Y-79288454D01*
X146953038Y-79288457D01*
X147131179Y-79427110D01*
X147131183Y-79427113D01*
X147329727Y-79534560D01*
X147543249Y-79607862D01*
X147765923Y-79645019D01*
X147991677Y-79645019D01*
X148214351Y-79607862D01*
X148427873Y-79534560D01*
X148626417Y-79427113D01*
X148804568Y-79288452D01*
X148957467Y-79122360D01*
X149080942Y-78933367D01*
X149141244Y-78795889D01*
X149186200Y-78742405D01*
X149252936Y-78721715D01*
X149320263Y-78740389D01*
X149366807Y-78792499D01*
X149378800Y-78845701D01*
X149378800Y-79630644D01*
X149385201Y-79690172D01*
X149385203Y-79690179D01*
X149435445Y-79824886D01*
X149435449Y-79824893D01*
X149521609Y-79939987D01*
X149521612Y-79939990D01*
X149636706Y-80026150D01*
X149636713Y-80026154D01*
X149771420Y-80076396D01*
X149771427Y-80076398D01*
X149830955Y-80082799D01*
X149830972Y-80082800D01*
X150378800Y-80082800D01*
X150378800Y-78532800D01*
X150878800Y-78532800D01*
X150878800Y-80082800D01*
X151426628Y-80082800D01*
X151426644Y-80082799D01*
X151486172Y-80076398D01*
X151486179Y-80076396D01*
X151620886Y-80026154D01*
X151620893Y-80026150D01*
X151735987Y-79939990D01*
X151735990Y-79939987D01*
X151822150Y-79824893D01*
X151822154Y-79824886D01*
X151872396Y-79690179D01*
X151872398Y-79690172D01*
X151878799Y-79630644D01*
X151878800Y-79630627D01*
X151878800Y-78532800D01*
X150878800Y-78532800D01*
X150378800Y-78532800D01*
X150378800Y-76482800D01*
X150878800Y-76482800D01*
X150878800Y-78032800D01*
X151878800Y-78032800D01*
X151878800Y-76934972D01*
X151878799Y-76934955D01*
X151872398Y-76875427D01*
X151872396Y-76875420D01*
X151822154Y-76740713D01*
X151822150Y-76740706D01*
X151735990Y-76625612D01*
X151735987Y-76625609D01*
X151620893Y-76539449D01*
X151620886Y-76539445D01*
X151486179Y-76489203D01*
X151486172Y-76489201D01*
X151426644Y-76482800D01*
X150878800Y-76482800D01*
X150378800Y-76482800D01*
X149830955Y-76482800D01*
X149771427Y-76489201D01*
X149771420Y-76489203D01*
X149636713Y-76539445D01*
X149636706Y-76539449D01*
X149521612Y-76625609D01*
X149521609Y-76625612D01*
X149435449Y-76740706D01*
X149435445Y-76740713D01*
X149385203Y-76875420D01*
X149385201Y-76875427D01*
X149378800Y-76934955D01*
X149378800Y-77719898D01*
X149359115Y-77786937D01*
X149306311Y-77832692D01*
X149237153Y-77842636D01*
X149173597Y-77813611D01*
X149141244Y-77769708D01*
X149080942Y-77632233D01*
X148957469Y-77443242D01*
X148804565Y-77277145D01*
X148804561Y-77277142D01*
X148626420Y-77138489D01*
X148626416Y-77138486D01*
X148427874Y-77031040D01*
X148427868Y-77031038D01*
X148214353Y-76957738D01*
X147991677Y-76920581D01*
X147765923Y-76920581D01*
X147543246Y-76957738D01*
X147329731Y-77031038D01*
X147329725Y-77031040D01*
X147131183Y-77138486D01*
X147131179Y-77138489D01*
X146953038Y-77277142D01*
X146953034Y-77277145D01*
X146800130Y-77443242D01*
X146676657Y-77632233D01*
X146585973Y-77838973D01*
X146530554Y-78057821D01*
X146511912Y-78282794D01*
X146511912Y-78282805D01*
X146079300Y-78282805D01*
X146079300Y-76963049D01*
X146079299Y-76963047D01*
X146067668Y-76904570D01*
X146067667Y-76904569D01*
X146023352Y-76838247D01*
X145957030Y-76793932D01*
X145957029Y-76793931D01*
X145898552Y-76782300D01*
X145898548Y-76782300D01*
X144359052Y-76782300D01*
X144359047Y-76782300D01*
X144300570Y-76793931D01*
X144300569Y-76793932D01*
X144234247Y-76838247D01*
X144189932Y-76904569D01*
X144189931Y-76904570D01*
X144178300Y-76963047D01*
X144178300Y-79602552D01*
X144189931Y-79661029D01*
X144189932Y-79661030D01*
X144234247Y-79727352D01*
X144300569Y-79771667D01*
X144300570Y-79771668D01*
X144359047Y-79783299D01*
X144359050Y-79783300D01*
X144359052Y-79783300D01*
X144686100Y-79783300D01*
X144753139Y-79802985D01*
X144798894Y-79855789D01*
X144810100Y-79907300D01*
X144810100Y-92522300D01*
X144790415Y-92589339D01*
X144737611Y-92635094D01*
X144686100Y-92646300D01*
X144456330Y-92646300D01*
X144425900Y-92649153D01*
X144425898Y-92649153D01*
X144297719Y-92694006D01*
X144297717Y-92694007D01*
X144188450Y-92774650D01*
X144107807Y-92883917D01*
X144107806Y-92883919D01*
X144062953Y-93012098D01*
X144062953Y-93012100D01*
X144060100Y-93042530D01*
X144060100Y-93951069D01*
X129893221Y-93951069D01*
X129815917Y-93506850D01*
X129815557Y-93504522D01*
X129654057Y-92309175D01*
X129653866Y-92307614D01*
X129604232Y-91850262D01*
X129604045Y-91848204D01*
X129566477Y-91334240D01*
X129566353Y-91331955D01*
X129544148Y-90712565D01*
X129544117Y-90711263D01*
X129536493Y-90021741D01*
X129542681Y-89298737D01*
X129561867Y-88579064D01*
X129593204Y-87899435D01*
X129593289Y-87897985D01*
X129598648Y-87822148D01*
X129635893Y-87294999D01*
X129636098Y-87292716D01*
X129689083Y-86802237D01*
X129689494Y-86799152D01*
X129723102Y-86588486D01*
X129723763Y-86584993D01*
X129921263Y-85684979D01*
X129922058Y-85681778D01*
X130169455Y-84789356D01*
X130170414Y-84786228D01*
X130453723Y-83943713D01*
X130455043Y-83940156D01*
X130760193Y-83189823D01*
X130762084Y-83185633D01*
X131019855Y-82666519D01*
X131021136Y-82664077D01*
X131252904Y-82245184D01*
X131254054Y-82243271D01*
X131254089Y-82243068D01*
X131254091Y-82243067D01*
X131254090Y-82243064D01*
X131254112Y-82242944D01*
X131254077Y-82242823D01*
X131254078Y-82242821D01*
X131254076Y-82242819D01*
X131254028Y-82242648D01*
X131252771Y-82240960D01*
X131235868Y-82216603D01*
X131023007Y-81909872D01*
X131020327Y-81905655D01*
X130893640Y-81687148D01*
X130829781Y-81577004D01*
X130827117Y-81571872D01*
X130758532Y-81423179D01*
X130622386Y-81128013D01*
X130620954Y-81124648D01*
X130421955Y-80614951D01*
X130420833Y-80611831D01*
X130247964Y-80087339D01*
X130246990Y-80084079D01*
X130144757Y-79703697D01*
X130143436Y-79697552D01*
X130137505Y-79661029D01*
X130055492Y-79155958D01*
X130054820Y-79150011D01*
X130015022Y-78532800D01*
X130013351Y-78506903D01*
X130013225Y-78502550D01*
X130017658Y-77818486D01*
X130017828Y-77814307D01*
X130019872Y-77786937D01*
X130067334Y-77151278D01*
X130067946Y-77146076D01*
X130161558Y-76564351D01*
X130162453Y-76559865D01*
X130189754Y-76445564D01*
X130191288Y-76440222D01*
X130310010Y-76087255D01*
X130481462Y-75577514D01*
X130484780Y-75569537D01*
X130887611Y-74764240D01*
X130891983Y-74756837D01*
X131386913Y-74037931D01*
X131398453Y-74023582D01*
X131965089Y-73417500D01*
X131980763Y-73403367D01*
X132609259Y-72927101D01*
X132614352Y-72923627D01*
X132616550Y-72922282D01*
X132619375Y-72920555D01*
X132622294Y-72919124D01*
X132628213Y-72915207D01*
X132630447Y-72913797D01*
X132638375Y-72909021D01*
X132640916Y-72906939D01*
X132895193Y-72741666D01*
X132896278Y-72740979D01*
X132897113Y-72740179D01*
X133058178Y-72589851D01*
X133060316Y-72588046D01*
X133060774Y-72587464D01*
X133062002Y-72585029D01*
X133168056Y-72397836D01*
X133168352Y-72397330D01*
X133168358Y-72397324D01*
X133168360Y-72397316D01*
X133168387Y-72397271D01*
X133168399Y-72397231D01*
X133168402Y-72397228D01*
X133168402Y-72397223D01*
X133168574Y-72396695D01*
X133258439Y-72137711D01*
X133259356Y-72135240D01*
X133587354Y-71307454D01*
X133595084Y-71291416D01*
X134036166Y-70522799D01*
X134040893Y-70515735D01*
X134580278Y-69818355D01*
X134585936Y-69811996D01*
X135199081Y-69211760D01*
X135212840Y-69200124D01*
X135879197Y-68715063D01*
X135896293Y-68704622D01*
X136599254Y-68349859D01*
X136620131Y-68341600D01*
X137306441Y-68139780D01*
X137312334Y-68138357D01*
X137792497Y-68047106D01*
X137798358Y-68046986D01*
X137813165Y-68043219D01*
X137813167Y-68043220D01*
X137813168Y-68043218D01*
X137813341Y-68043175D01*
X137813382Y-68043146D01*
X137813480Y-68043000D01*
X137813482Y-68043000D01*
X137813482Y-68042998D01*
X137822166Y-68030231D01*
X137824266Y-68024795D01*
X138188382Y-67412876D01*
X138190319Y-67409828D01*
X138540185Y-66894019D01*
X138543466Y-66889617D01*
X138980148Y-66355016D01*
X138983135Y-66351623D01*
X139463515Y-65844981D01*
X139467076Y-65841517D01*
X139550844Y-65766306D01*
X139946988Y-65410627D01*
X139951216Y-65407157D01*
X140229241Y-65198926D01*
X140235863Y-65194598D01*
X141038307Y-64740662D01*
X141056627Y-64732188D01*
X141901292Y-64422244D01*
X141920845Y-64416839D01*
X142789978Y-64251688D01*
X142810744Y-64249532D01*
X143681038Y-64232873D01*
X143702917Y-64234396D01*
X144272376Y-64325209D01*
X144559414Y-64370985D01*
X144566245Y-64372473D01*
X144700812Y-64409842D01*
X144741492Y-64421139D01*
X144744226Y-64421898D01*
X144745381Y-64422231D01*
X145185569Y-64554214D01*
X145189375Y-64556096D01*
X145204579Y-64559973D01*
X145206074Y-64560389D01*
X145206198Y-64560375D01*
X145206356Y-64560284D01*
X145207415Y-64558922D01*
X145219369Y-64544299D01*
X145221278Y-64540330D01*
X145309844Y-64422249D01*
X145416909Y-64279503D01*
X145419671Y-64276083D01*
X145443402Y-64248733D01*
X146101432Y-63490339D01*
X146113841Y-63477934D01*
X146882594Y-62811325D01*
X146896892Y-62800630D01*
X147735585Y-62262917D01*
X147752145Y-62253996D01*
X147824669Y-62221761D01*
X148645151Y-61857078D01*
X148652022Y-61854500D01*
X149074567Y-61723991D01*
X149081741Y-61722238D01*
X149100605Y-61718803D01*
X149522102Y-61642050D01*
X149528212Y-61641249D01*
X150072600Y-61597436D01*
X150076774Y-61597244D01*
X150663143Y-61590332D01*
X150667146Y-61590415D01*
X151232311Y-61620568D01*
X151237512Y-61621068D01*
X151719724Y-61688177D01*
X151725122Y-61689174D01*
X151850788Y-61718209D01*
X151855856Y-61719610D01*
X152158650Y-61817423D01*
X152162076Y-61818642D01*
X152548481Y-61969093D01*
X152550782Y-61970044D01*
X152953770Y-62146529D01*
X152955550Y-62147343D01*
X153111552Y-62221770D01*
X153847952Y-62583508D01*
X153854049Y-62587750D01*
X153862344Y-62590891D01*
X153865298Y-62592175D01*
X153865444Y-62592177D01*
X153865705Y-62592073D01*
X153868196Y-62589647D01*
X153874860Y-62583822D01*
X153879169Y-62577518D01*
X154580526Y-61832470D01*
X154581821Y-61831136D01*
X155222335Y-61192594D01*
X155226060Y-61189176D01*
X155838416Y-60672353D01*
X155843396Y-60668566D01*
X156471656Y-60239255D01*
X156476875Y-60236057D01*
X157149971Y-59868164D01*
X157154879Y-59865757D01*
X157927967Y-59528287D01*
X157934906Y-59525740D01*
X158666780Y-59305505D01*
X158675017Y-59303628D01*
X159431544Y-59184861D01*
X159438562Y-59184166D01*
X160218707Y-59151804D01*
X160225307Y-59151883D01*
G37*
%TD.AperFunction*%
%TD*%
M02*
