%TF.GenerationSoftware,KiCad,Pcbnew,7.0.5-4d25ed1034~172~ubuntu22.04.1*%
%TF.CreationDate,2023-06-12T10:59:29-06:00*%
%TF.ProjectId,sao-2023-foot,73616f2d-3230-4323-932d-666f6f742e6b,rev?*%
%TF.SameCoordinates,Original*%
%TF.FileFunction,Legend,Top*%
%TF.FilePolarity,Positive*%
%FSLAX46Y46*%
G04 Gerber Fmt 4.6, Leading zero omitted, Abs format (unit mm)*
G04 Created by KiCad (PCBNEW 7.0.5-4d25ed1034~172~ubuntu22.04.1) date 2023-06-12 10:59:29*
%MOMM*%
%LPD*%
G01*
G04 APERTURE LIST*
%ADD10C,0.150000*%
G04 APERTURE END LIST*
D10*
%TO.C,*%
%TO.C,G\u002A\u002A\u002A*%
G36*
X160635808Y-59112710D02*
G01*
X161346915Y-59188727D01*
X161819799Y-59292262D01*
X162789805Y-59652961D01*
X163713706Y-60161973D01*
X164565757Y-60800640D01*
X165320215Y-61550298D01*
X165817502Y-62190061D01*
X166411238Y-63196496D01*
X166882885Y-64299395D01*
X167233195Y-65480302D01*
X167462919Y-66720765D01*
X167572808Y-68002329D01*
X167563614Y-69306542D01*
X167436087Y-70614949D01*
X167190979Y-71909096D01*
X166829040Y-73170531D01*
X166351022Y-74380799D01*
X165757676Y-75521447D01*
X165242667Y-76312830D01*
X164957198Y-76689957D01*
X164627213Y-77092592D01*
X164313538Y-77447185D01*
X164243367Y-77521186D01*
X163723373Y-78059016D01*
X163926234Y-78380368D01*
X164450467Y-79364474D01*
X164841191Y-80432007D01*
X165097448Y-81562835D01*
X165218283Y-82736823D01*
X165202737Y-83933839D01*
X165049856Y-85133748D01*
X164758682Y-86316418D01*
X164354862Y-87401640D01*
X163948217Y-88240583D01*
X163467236Y-89065886D01*
X162901138Y-89890320D01*
X162239146Y-90726656D01*
X161470480Y-91587665D01*
X160584360Y-92486118D01*
X159570008Y-93434784D01*
X158416645Y-94446436D01*
X158388345Y-94470591D01*
X157741143Y-95026745D01*
X157209361Y-95494000D01*
X156776840Y-95888252D01*
X156427420Y-96225399D01*
X156144941Y-96521336D01*
X155913245Y-96791960D01*
X155716172Y-97053168D01*
X155619358Y-97194549D01*
X155148752Y-98046453D01*
X154813004Y-98966867D01*
X154618073Y-99925612D01*
X154569923Y-100892506D01*
X154674514Y-101837370D01*
X154688645Y-101906329D01*
X154798435Y-102336160D01*
X154948074Y-102748988D01*
X155151737Y-103169453D01*
X155423597Y-103622192D01*
X155777830Y-104131845D01*
X156228607Y-104723048D01*
X156517408Y-105085186D01*
X157142678Y-105869623D01*
X157679314Y-106565347D01*
X158152680Y-107207333D01*
X158588142Y-107830555D01*
X159011068Y-108469988D01*
X159286291Y-108902954D01*
X160201951Y-110483849D01*
X160961768Y-112056435D01*
X161565034Y-113616338D01*
X162011044Y-115159184D01*
X162299090Y-116680596D01*
X162428466Y-118176200D01*
X162398465Y-119641621D01*
X162208381Y-121072484D01*
X161857506Y-122464414D01*
X161596912Y-123208742D01*
X161015281Y-124513609D01*
X160325328Y-125694071D01*
X159524985Y-126751647D01*
X158612185Y-127687857D01*
X157584862Y-128504222D01*
X156440947Y-129202263D01*
X155178374Y-129783498D01*
X153795077Y-130249449D01*
X152288986Y-130601636D01*
X151331712Y-130758113D01*
X150682239Y-130832296D01*
X149964171Y-130886707D01*
X149226104Y-130919769D01*
X148516636Y-130929902D01*
X147884366Y-130915530D01*
X147454570Y-130884025D01*
X146034976Y-130654973D01*
X144706305Y-130285366D01*
X143471541Y-129778043D01*
X142333664Y-129135842D01*
X141295658Y-128361600D01*
X140360503Y-127458157D01*
X139531183Y-126428350D01*
X138810680Y-125275017D01*
X138201974Y-124000997D01*
X137708050Y-122609128D01*
X137370103Y-121286202D01*
X137252763Y-120701676D01*
X137157190Y-120139601D01*
X137079115Y-119563134D01*
X137014268Y-118935435D01*
X136958379Y-118219663D01*
X136907178Y-117378977D01*
X136898368Y-117216027D01*
X136822859Y-116019538D01*
X136727038Y-114957556D01*
X136603367Y-113996861D01*
X136444309Y-113104234D01*
X136242326Y-112246456D01*
X135989880Y-111390308D01*
X135679433Y-110502569D01*
X135303447Y-109550021D01*
X134992124Y-108815103D01*
X134210844Y-106988761D01*
X133507429Y-105296081D01*
X132877449Y-103724017D01*
X132316475Y-102259522D01*
X131820078Y-100889550D01*
X131383829Y-99601056D01*
X131003299Y-98380993D01*
X130674059Y-97216316D01*
X130391680Y-96093978D01*
X130151732Y-95000933D01*
X129963393Y-94002782D01*
X129822011Y-93155210D01*
X129715795Y-92422934D01*
X129640371Y-91757753D01*
X129591363Y-91111463D01*
X129564397Y-90435862D01*
X129555097Y-89682749D01*
X129554986Y-89503113D01*
X129555143Y-89496861D01*
X133467310Y-89496861D01*
X133479896Y-90288723D01*
X133514806Y-91069018D01*
X133571298Y-91793279D01*
X133648632Y-92417040D01*
X133653359Y-92446822D01*
X133852004Y-93570962D01*
X134089434Y-94704217D01*
X134370317Y-95860699D01*
X134699320Y-97054519D01*
X135081110Y-98299788D01*
X135520355Y-99610618D01*
X136021723Y-101001119D01*
X136589881Y-102485403D01*
X137229495Y-104077582D01*
X137945235Y-105791767D01*
X138479923Y-107039206D01*
X139002157Y-108288278D01*
X139438708Y-109433789D01*
X139798078Y-110511547D01*
X140088769Y-111557361D01*
X140319282Y-112607041D01*
X140498121Y-113696396D01*
X140633788Y-114861236D01*
X140734784Y-116137368D01*
X140766413Y-116669338D01*
X140806926Y-117386850D01*
X140842922Y-117966281D01*
X140877187Y-118437607D01*
X140912510Y-118830799D01*
X140951679Y-119175833D01*
X140997480Y-119502681D01*
X141052703Y-119841316D01*
X141071486Y-119949471D01*
X141353776Y-121222352D01*
X141731573Y-122361242D01*
X142207774Y-123372575D01*
X142785279Y-124262784D01*
X143277008Y-124844642D01*
X144034876Y-125544110D01*
X144859684Y-126100477D01*
X145769173Y-126523192D01*
X146781082Y-126821703D01*
X147118146Y-126890463D01*
X147601275Y-126953135D01*
X148201913Y-126990474D01*
X148871291Y-127002573D01*
X149560638Y-126989524D01*
X150221187Y-126951422D01*
X150804165Y-126888360D01*
X150838552Y-126883349D01*
X152131758Y-126634281D01*
X153305666Y-126290053D01*
X154354261Y-125853380D01*
X155271528Y-125326980D01*
X156051453Y-124713570D01*
X156385316Y-124378059D01*
X157075516Y-123499204D01*
X157642146Y-122507803D01*
X158085998Y-121402366D01*
X158243908Y-120874636D01*
X158323877Y-120562958D01*
X158381710Y-120284308D01*
X158421053Y-120000603D01*
X158445553Y-119673761D01*
X158458855Y-119265700D01*
X158464608Y-118738338D01*
X158465370Y-118561722D01*
X158465198Y-117997155D01*
X158457801Y-117561059D01*
X158439514Y-117213730D01*
X158406670Y-116915466D01*
X158355606Y-116626562D01*
X158282654Y-116307315D01*
X158242303Y-116145524D01*
X157908651Y-115007380D01*
X157482244Y-113875655D01*
X156954727Y-112735266D01*
X156317745Y-111571129D01*
X155562943Y-110368161D01*
X154681966Y-109111277D01*
X153666460Y-107785395D01*
X153487842Y-107561994D01*
X153115538Y-107093317D01*
X152760734Y-106636327D01*
X152443563Y-106217752D01*
X152184157Y-105864317D01*
X152002649Y-105602749D01*
X151953638Y-105525299D01*
X151402039Y-104444757D01*
X151000987Y-103306028D01*
X150749877Y-102124732D01*
X150648100Y-100916492D01*
X150695052Y-99696929D01*
X150890124Y-98481663D01*
X151232712Y-97286316D01*
X151722207Y-96126510D01*
X152358004Y-95017867D01*
X152361830Y-95012053D01*
X152663918Y-94593886D01*
X153047842Y-94136235D01*
X153524249Y-93628364D01*
X154103786Y-93059538D01*
X154797101Y-92419018D01*
X155614842Y-91696069D01*
X155865166Y-91479469D01*
X156864660Y-90600527D01*
X157732107Y-89797459D01*
X158478170Y-89057088D01*
X159113509Y-88366237D01*
X159648784Y-87711731D01*
X160094658Y-87080393D01*
X160461791Y-86459046D01*
X160760844Y-85834514D01*
X161002478Y-85193620D01*
X161036882Y-85087550D01*
X161138994Y-84656578D01*
X161216422Y-84114951D01*
X161265777Y-83518870D01*
X161283671Y-82924539D01*
X161266714Y-82388160D01*
X161221977Y-82017683D01*
X160983230Y-81191125D01*
X160591334Y-80424629D01*
X160051457Y-79721412D01*
X159368767Y-79084694D01*
X158548433Y-78517692D01*
X157595622Y-78023625D01*
X156515501Y-77605711D01*
X155313239Y-77267168D01*
X153994004Y-77011215D01*
X152971253Y-76879525D01*
X152363591Y-76836144D01*
X151632762Y-76815296D01*
X150822121Y-76815713D01*
X149975019Y-76836127D01*
X149134811Y-76875269D01*
X148344849Y-76931870D01*
X147648486Y-77004663D01*
X147370464Y-77043399D01*
X145563546Y-77388846D01*
X143819854Y-77857287D01*
X142155413Y-78442527D01*
X140586248Y-79138375D01*
X139128382Y-79938637D01*
X138070086Y-80637597D01*
X137647292Y-80963020D01*
X137168278Y-81368379D01*
X136666525Y-81821909D01*
X136175514Y-82291840D01*
X135728724Y-82746405D01*
X135359636Y-83153837D01*
X135166284Y-83392856D01*
X134578120Y-84313446D01*
X134109352Y-85350885D01*
X133761023Y-86502490D01*
X133570899Y-87496542D01*
X133512071Y-88056303D01*
X133477788Y-88737899D01*
X133467310Y-89496861D01*
X129555143Y-89496861D01*
X129586949Y-88227032D01*
X129684957Y-87072913D01*
X129856424Y-86005057D01*
X130108763Y-84987763D01*
X130449384Y-83985333D01*
X130885703Y-82962066D01*
X130934959Y-82857060D01*
X131273682Y-82140476D01*
X130936618Y-81553417D01*
X130503895Y-80650544D01*
X130210830Y-79708821D01*
X130053930Y-78746643D01*
X130038510Y-78132982D01*
X133962514Y-78132982D01*
X134016517Y-78728538D01*
X134155891Y-79270155D01*
X134203425Y-79388668D01*
X134451433Y-79825309D01*
X134757251Y-80157043D01*
X135095561Y-80361843D01*
X135388566Y-80419669D01*
X135666159Y-80384870D01*
X135908540Y-80299340D01*
X135938460Y-80281579D01*
X136231966Y-79996734D01*
X136461946Y-79587307D01*
X136618247Y-79088235D01*
X136690719Y-78534454D01*
X136669209Y-77960901D01*
X136650250Y-77831928D01*
X136500782Y-77248017D01*
X136278723Y-76773183D01*
X136001445Y-76412866D01*
X135686322Y-76172507D01*
X135350724Y-76057546D01*
X135012025Y-76073424D01*
X134687597Y-76225581D01*
X134394811Y-76519457D01*
X134151041Y-76960494D01*
X134119852Y-77039478D01*
X133996190Y-77548343D01*
X133962514Y-78132982D01*
X130038510Y-78132982D01*
X130029701Y-77782401D01*
X130134650Y-76834489D01*
X130365284Y-75921298D01*
X130718108Y-75061221D01*
X131110963Y-74404211D01*
X136857219Y-74404211D01*
X136877999Y-75024940D01*
X136948479Y-75529338D01*
X137080865Y-75965055D01*
X137287365Y-76379743D01*
X137415740Y-76584327D01*
X137683098Y-76902976D01*
X138008050Y-77164878D01*
X138343197Y-77337882D01*
X138605119Y-77391059D01*
X138850946Y-77357503D01*
X139109755Y-77276535D01*
X139407098Y-77100852D01*
X139658578Y-76833179D01*
X139891767Y-76441436D01*
X139972548Y-76272611D01*
X140162002Y-75707442D01*
X140248792Y-75093524D01*
X140239865Y-74460220D01*
X140142169Y-73836892D01*
X139962652Y-73252901D01*
X139708261Y-72737611D01*
X139385945Y-72320384D01*
X139002651Y-72030581D01*
X138964177Y-72011159D01*
X138526149Y-71873892D01*
X138120696Y-71901400D01*
X137748666Y-72093267D01*
X137410905Y-72449074D01*
X137135628Y-72911747D01*
X137012203Y-73172516D01*
X136931894Y-73386400D01*
X136885483Y-73602824D01*
X136863748Y-73871215D01*
X136857471Y-74240997D01*
X136857219Y-74404211D01*
X131110963Y-74404211D01*
X131189629Y-74272651D01*
X131776354Y-73573981D01*
X132474788Y-72983602D01*
X132577851Y-72912929D01*
X132845666Y-72728134D01*
X133022077Y-72575924D01*
X133144293Y-72406546D01*
X133249522Y-72170248D01*
X133355798Y-71872697D01*
X133396199Y-71779327D01*
X140866677Y-71779327D01*
X140883253Y-72502439D01*
X140976971Y-73130609D01*
X141182358Y-73844162D01*
X141469787Y-74457637D01*
X141827464Y-74951874D01*
X142243597Y-75307714D01*
X142357777Y-75374072D01*
X142770565Y-75508362D01*
X143233137Y-75526468D01*
X143673506Y-75428252D01*
X143789068Y-75376828D01*
X144200732Y-75084876D01*
X144586393Y-74656247D01*
X144925365Y-74122390D01*
X145196958Y-73514755D01*
X145350183Y-73003623D01*
X145426392Y-72537574D01*
X145466360Y-71980141D01*
X145470110Y-71391935D01*
X145437660Y-70833566D01*
X145369033Y-70365645D01*
X145350047Y-70284901D01*
X147483477Y-70284901D01*
X147540163Y-71263054D01*
X147714032Y-72142996D01*
X148002044Y-72916142D01*
X148401160Y-73573905D01*
X148804450Y-74016807D01*
X149297131Y-74382902D01*
X149794382Y-74581832D01*
X150302206Y-74614640D01*
X150826606Y-74482366D01*
X151010693Y-74399500D01*
X151488866Y-74076933D01*
X151936705Y-73612569D01*
X152337369Y-73032279D01*
X152674019Y-72361938D01*
X152929813Y-71627417D01*
X153001359Y-71341132D01*
X153056149Y-70990983D01*
X155342236Y-70990983D01*
X155446616Y-72118809D01*
X155663406Y-73122142D01*
X155992923Y-74001907D01*
X156435480Y-74759029D01*
X156761377Y-75161366D01*
X157306054Y-75655461D01*
X157885435Y-75985123D01*
X158497297Y-76149918D01*
X159139415Y-76149413D01*
X159809567Y-75983172D01*
X160175442Y-75827676D01*
X160846559Y-75412985D01*
X161462199Y-74856193D01*
X162016097Y-74176049D01*
X162501990Y-73391305D01*
X162913612Y-72520711D01*
X163244699Y-71583016D01*
X163488986Y-70596973D01*
X163640209Y-69581331D01*
X163692102Y-68554840D01*
X163638402Y-67536252D01*
X163472843Y-66544317D01*
X163388434Y-66210950D01*
X163102307Y-65394783D01*
X162727098Y-64669782D01*
X162276218Y-64054232D01*
X161763083Y-63566419D01*
X161201105Y-63224627D01*
X161196160Y-63222402D01*
X160909075Y-63103131D01*
X160670214Y-63037635D01*
X160411449Y-63014842D01*
X160064658Y-63023682D01*
X159995753Y-63027330D01*
X159316610Y-63136894D01*
X158678578Y-63392697D01*
X158070311Y-63801314D01*
X157480462Y-64369314D01*
X157283073Y-64598723D01*
X156677543Y-65457740D01*
X156175460Y-66431353D01*
X155783887Y-67496295D01*
X155509890Y-68629302D01*
X155360531Y-69807108D01*
X155342236Y-70990983D01*
X153056149Y-70990983D01*
X153096863Y-70730789D01*
X153139554Y-70035738D01*
X153130062Y-69318658D01*
X153069017Y-68642230D01*
X152968924Y-68113794D01*
X152736487Y-67414315D01*
X152425992Y-66788566D01*
X152053900Y-66259634D01*
X151636672Y-65850608D01*
X151190770Y-65584576D01*
X151155796Y-65570712D01*
X150615575Y-65450950D01*
X150065453Y-65487603D01*
X149543583Y-65675882D01*
X149343154Y-65798217D01*
X148789891Y-66284288D01*
X148326208Y-66902162D01*
X147957939Y-67637759D01*
X147690921Y-68476996D01*
X147530993Y-69405791D01*
X147483477Y-70284901D01*
X145350047Y-70284901D01*
X145349258Y-70281545D01*
X145129433Y-69635917D01*
X144831033Y-69075587D01*
X144470514Y-68621884D01*
X144064335Y-68296138D01*
X143693063Y-68135139D01*
X143221982Y-68087851D01*
X142769267Y-68192041D01*
X142343871Y-68431241D01*
X141954749Y-68788980D01*
X141610857Y-69248788D01*
X141321149Y-69794197D01*
X141094580Y-70408736D01*
X140940104Y-71075936D01*
X140866677Y-71779327D01*
X133396199Y-71779327D01*
X133733126Y-71000651D01*
X134226151Y-70208787D01*
X134817927Y-69514546D01*
X135491507Y-68935374D01*
X136229945Y-68488714D01*
X136899272Y-68225272D01*
X137213919Y-68133579D01*
X137491796Y-68057364D01*
X137656226Y-68016913D01*
X137797829Y-67943657D01*
X137959524Y-67767142D01*
X138160062Y-67465244D01*
X138244967Y-67322309D01*
X138560161Y-66852389D01*
X138972805Y-66344892D01*
X139338345Y-65953935D01*
X140037428Y-65323690D01*
X140736742Y-64846657D01*
X141463498Y-64510012D01*
X142244906Y-64300934D01*
X143039065Y-64210030D01*
X143425147Y-64195946D01*
X143751435Y-64205384D01*
X144069425Y-64245498D01*
X144430616Y-64323441D01*
X144886503Y-64446366D01*
X145024068Y-64485760D01*
X145132282Y-64487172D01*
X145256944Y-64414128D01*
X145424562Y-64244871D01*
X145650626Y-63971507D01*
X146324194Y-63243275D01*
X147086184Y-62629372D01*
X147915517Y-62139713D01*
X148791112Y-61784212D01*
X149691888Y-61572785D01*
X150596766Y-61515346D01*
X150845882Y-61528045D01*
X151641636Y-61651191D01*
X152442361Y-61887411D01*
X153175869Y-62214256D01*
X153326989Y-62299600D01*
X153644173Y-62479043D01*
X153843846Y-62569227D01*
X153946474Y-62577105D01*
X153972782Y-62519086D01*
X154031258Y-62411356D01*
X154190280Y-62216128D01*
X154425242Y-61958297D01*
X154711538Y-61662755D01*
X155024560Y-61354397D01*
X155339702Y-61058115D01*
X155632357Y-60798805D01*
X155840711Y-60629369D01*
X156571656Y-60136479D01*
X157371648Y-59712052D01*
X158176906Y-59388277D01*
X158486202Y-59294160D01*
X159143242Y-59165461D01*
X159880514Y-59104966D01*
X160635808Y-59112710D01*
G37*
%TO.C,*%
G36*
X161134464Y-59252247D02*
G01*
X162070849Y-59455228D01*
X162947014Y-59802057D01*
X163781696Y-60300438D01*
X164593630Y-60958081D01*
X164723579Y-61079452D01*
X165354985Y-61744288D01*
X165886892Y-62454659D01*
X166360043Y-63266333D01*
X166448626Y-63440545D01*
X166924680Y-64576359D01*
X167270954Y-65797101D01*
X167488380Y-67081825D01*
X167577893Y-68409584D01*
X167540424Y-69759434D01*
X167376907Y-71110427D01*
X167088275Y-72441618D01*
X166675460Y-73732061D01*
X166139396Y-74960809D01*
X165916659Y-75383592D01*
X165477334Y-76119861D01*
X164994866Y-76805269D01*
X164425034Y-77501306D01*
X164255428Y-77693486D01*
X163763862Y-78243194D01*
X163925577Y-78495512D01*
X164037081Y-78688811D01*
X164191281Y-78980791D01*
X164359981Y-79317588D01*
X164409858Y-79420678D01*
X164790119Y-80394203D01*
X165048794Y-81457331D01*
X165185410Y-82582933D01*
X165199499Y-83743884D01*
X165090590Y-84913055D01*
X164858212Y-86063319D01*
X164542311Y-87062114D01*
X164213511Y-87854613D01*
X163830000Y-88620000D01*
X163380654Y-89372039D01*
X162854347Y-90124495D01*
X162239956Y-90891132D01*
X161526355Y-91685715D01*
X160702420Y-92522007D01*
X159757026Y-93413774D01*
X158679048Y-94374779D01*
X158521112Y-94511995D01*
X157779777Y-95160295D01*
X157157191Y-95720806D01*
X156639908Y-96209754D01*
X156214481Y-96643366D01*
X155867464Y-97037869D01*
X155585409Y-97409490D01*
X155354870Y-97774457D01*
X155162401Y-98148995D01*
X154994555Y-98549333D01*
X154857415Y-98933261D01*
X154733050Y-99357248D01*
X154651852Y-99784572D01*
X154602690Y-100282027D01*
X154587849Y-100551048D01*
X154584975Y-101278586D01*
X154654855Y-101931619D01*
X154809252Y-102541242D01*
X155059926Y-103138547D01*
X155418638Y-103754630D01*
X155897151Y-104420583D01*
X156190974Y-104789272D01*
X157352355Y-106257403D01*
X158374992Y-107656631D01*
X159266647Y-109000714D01*
X160035078Y-110303406D01*
X160688045Y-111578463D01*
X161233307Y-112839641D01*
X161678625Y-114100695D01*
X161925747Y-114955446D01*
X162215136Y-116328991D01*
X162372794Y-117739573D01*
X162398339Y-119153507D01*
X162291393Y-120537108D01*
X162051573Y-121856690D01*
X162005750Y-122040706D01*
X161572666Y-123410575D01*
X161007391Y-124685161D01*
X160314807Y-125858257D01*
X159499798Y-126923659D01*
X158567247Y-127875159D01*
X157522037Y-128706553D01*
X156369052Y-129411635D01*
X156094455Y-129552645D01*
X154958352Y-130048696D01*
X153732435Y-130450515D01*
X152396116Y-130763949D01*
X151091130Y-130974114D01*
X150578769Y-131033125D01*
X150091620Y-131074382D01*
X149654913Y-131097361D01*
X149293879Y-131101540D01*
X149033748Y-131086396D01*
X148899751Y-131051407D01*
X148890979Y-131019685D01*
X148995015Y-130978323D01*
X149220279Y-130948183D01*
X149519866Y-130935298D01*
X149547764Y-130935191D01*
X150014237Y-130914336D01*
X150598152Y-130856740D01*
X151254445Y-130769099D01*
X151938052Y-130658111D01*
X152603908Y-130530475D01*
X153206949Y-130392887D01*
X153221686Y-130389161D01*
X154634841Y-129954828D01*
X155936353Y-129397554D01*
X157124132Y-128718950D01*
X158196086Y-127920627D01*
X159150122Y-127004197D01*
X159984152Y-125971272D01*
X160696082Y-124823464D01*
X160864667Y-124498935D01*
X161455968Y-123139318D01*
X161883113Y-121754528D01*
X162146053Y-120343338D01*
X162244737Y-118904515D01*
X162179117Y-117436831D01*
X161949142Y-115939055D01*
X161554764Y-114409956D01*
X160995933Y-112848306D01*
X160336108Y-111380943D01*
X159893365Y-110515008D01*
X159434947Y-109690134D01*
X158943775Y-108880587D01*
X158402770Y-108060635D01*
X157794853Y-107204545D01*
X157102946Y-106286586D01*
X156309970Y-105281024D01*
X156182117Y-105122117D01*
X155646165Y-104435054D01*
X155222996Y-103832824D01*
X154901490Y-103286488D01*
X154670530Y-102767106D01*
X154518996Y-102245742D01*
X154435771Y-101693454D01*
X154409736Y-101081306D01*
X154422087Y-100541142D01*
X154480095Y-99799061D01*
X154595147Y-99156193D01*
X154784133Y-98548403D01*
X155063943Y-97911556D01*
X155169775Y-97702051D01*
X155341007Y-97394397D01*
X155535148Y-97097642D01*
X155767308Y-96795816D01*
X156052601Y-96472944D01*
X156406138Y-96113054D01*
X156843031Y-95700174D01*
X157378392Y-95218331D01*
X158027333Y-94651552D01*
X158183090Y-94517110D01*
X159183531Y-93641833D01*
X160058047Y-92846600D01*
X160819802Y-92116856D01*
X161481961Y-91438047D01*
X162057690Y-90795618D01*
X162560154Y-90175014D01*
X163002518Y-89561681D01*
X163397947Y-88941063D01*
X163689202Y-88429805D01*
X164236174Y-87273987D01*
X164642717Y-86090253D01*
X164908499Y-84894344D01*
X165033188Y-83702003D01*
X165016451Y-82528970D01*
X164857955Y-81390990D01*
X164557368Y-80303803D01*
X164114357Y-79283153D01*
X163890780Y-78886420D01*
X163732808Y-78609147D01*
X163617642Y-78376064D01*
X163567963Y-78233523D01*
X163567469Y-78225702D01*
X163622116Y-78114183D01*
X163769491Y-77914299D01*
X163984749Y-77657981D01*
X164157355Y-77467599D01*
X164970287Y-76478535D01*
X165682608Y-75364602D01*
X166285997Y-74141569D01*
X166772132Y-72825202D01*
X166966409Y-72145512D01*
X167131692Y-71457013D01*
X167249313Y-70829426D01*
X167325444Y-70209021D01*
X167366259Y-69542066D01*
X167377930Y-68774831D01*
X167377089Y-68571009D01*
X167337118Y-67496174D01*
X167227665Y-66528939D01*
X167040245Y-65620137D01*
X166766373Y-64720606D01*
X166664132Y-64440029D01*
X166188318Y-63375775D01*
X165612450Y-62423892D01*
X164947528Y-61589712D01*
X164204550Y-60878570D01*
X163394515Y-60295800D01*
X162528423Y-59846737D01*
X161617272Y-59536713D01*
X160672061Y-59371064D01*
X159703789Y-59355122D01*
X158723454Y-59494224D01*
X157742057Y-59793701D01*
X157389631Y-59942245D01*
X156539179Y-60401847D01*
X155704139Y-60992818D01*
X154928536Y-61680769D01*
X154345631Y-62320070D01*
X154127085Y-62576898D01*
X153943035Y-62774338D01*
X153822183Y-62882367D01*
X153797029Y-62893857D01*
X153691420Y-62853011D01*
X153484306Y-62744986D01*
X153216953Y-62591546D01*
X153166079Y-62561063D01*
X152381532Y-62170228D01*
X151548445Y-61905225D01*
X150704644Y-61774482D01*
X149887954Y-61786431D01*
X149761449Y-61802272D01*
X149015339Y-61959588D01*
X148272182Y-62209285D01*
X147607389Y-62525374D01*
X147526435Y-62572506D01*
X147193288Y-62801536D01*
X146802159Y-63116129D01*
X146394460Y-63478267D01*
X146011603Y-63849933D01*
X145694999Y-64193109D01*
X145525726Y-64409229D01*
X145415795Y-64563591D01*
X145317232Y-64664104D01*
X145197724Y-64714037D01*
X145024960Y-64716657D01*
X144766627Y-64675231D01*
X144390412Y-64593027D01*
X144181046Y-64545200D01*
X143608466Y-64442132D01*
X143092158Y-64419640D01*
X142550040Y-64477286D01*
X142249021Y-64534885D01*
X141355390Y-64809352D01*
X140511688Y-65240742D01*
X139725542Y-65823170D01*
X139004576Y-66550755D01*
X138356416Y-67417612D01*
X138208566Y-67652244D01*
X138024171Y-67944669D01*
X137885040Y-68123798D01*
X137754087Y-68223011D01*
X137594229Y-68275689D01*
X137495074Y-68294464D01*
X136693233Y-68514671D01*
X135931136Y-68886834D01*
X135224087Y-69396479D01*
X134587391Y-70029135D01*
X134036350Y-70770329D01*
X133586270Y-71605590D01*
X133346500Y-72217512D01*
X133232539Y-72537564D01*
X133130791Y-72745045D01*
X133005277Y-72888545D01*
X132820018Y-73016655D01*
X132705237Y-73083565D01*
X132427455Y-73269781D01*
X132103602Y-73527289D01*
X131800508Y-73802685D01*
X131780703Y-73822345D01*
X131179922Y-74538692D01*
X130707030Y-75345761D01*
X130363564Y-76223225D01*
X130151066Y-77150760D01*
X130071075Y-78108040D01*
X130125130Y-79074738D01*
X130314773Y-80030529D01*
X130641543Y-80955087D01*
X131106980Y-81828086D01*
X131167147Y-81920755D01*
X131380039Y-82242458D01*
X130911912Y-83228588D01*
X130520841Y-84112313D01*
X130211352Y-84957481D01*
X129975253Y-85801553D01*
X129804350Y-86681992D01*
X129690449Y-87636258D01*
X129625359Y-88701815D01*
X129610937Y-89176969D01*
X129602544Y-90193473D01*
X129629804Y-91129916D01*
X129697353Y-92036108D01*
X129809826Y-92961856D01*
X129971859Y-93956969D01*
X130135373Y-94812069D01*
X130372046Y-95915591D01*
X130640068Y-97019064D01*
X130945099Y-98139126D01*
X131292802Y-99292418D01*
X131688836Y-100495580D01*
X132138864Y-101765250D01*
X132648547Y-103118069D01*
X133223545Y-104570676D01*
X133869519Y-106139711D01*
X134477336Y-107574337D01*
X134769982Y-108261085D01*
X135049822Y-108924623D01*
X135307816Y-109543006D01*
X135534921Y-110094292D01*
X135722096Y-110556535D01*
X135860300Y-110907791D01*
X135939344Y-111122689D01*
X136284044Y-112328409D01*
X136558561Y-113683254D01*
X136763115Y-115188554D01*
X136897927Y-116845637D01*
X136902809Y-116931936D01*
X136970773Y-118021886D01*
X137047608Y-118970959D01*
X137137317Y-119806421D01*
X137243900Y-120555536D01*
X137371358Y-121245571D01*
X137523693Y-121903789D01*
X137704906Y-122557456D01*
X137750439Y-122707899D01*
X138254197Y-124103684D01*
X138870443Y-125376885D01*
X139598059Y-126526133D01*
X140435931Y-127550062D01*
X141382942Y-128447303D01*
X142437976Y-129216489D01*
X143571887Y-129842948D01*
X144594167Y-130265723D01*
X145673587Y-130594993D01*
X146761886Y-130819259D01*
X147810808Y-130927021D01*
X148155052Y-130935083D01*
X148464728Y-130946096D01*
X148679913Y-130975248D01*
X148764651Y-131017551D01*
X148764820Y-131019685D01*
X148686668Y-131062352D01*
X148473983Y-131087192D01*
X148159426Y-131094879D01*
X147775654Y-131086088D01*
X147355326Y-131061495D01*
X146931102Y-131021775D01*
X146578065Y-130974461D01*
X145222840Y-130679976D01*
X143948722Y-130240162D01*
X142761765Y-129659360D01*
X141668019Y-128941911D01*
X140673540Y-128092154D01*
X139784378Y-127114429D01*
X139006588Y-126013077D01*
X138559302Y-125224640D01*
X138148171Y-124369443D01*
X137800726Y-123505752D01*
X137511302Y-122609204D01*
X137274237Y-121655441D01*
X137083865Y-120620100D01*
X136934523Y-119478822D01*
X136820547Y-118207246D01*
X136777887Y-117562731D01*
X136699689Y-116393495D01*
X136609825Y-115362231D01*
X136501316Y-114438763D01*
X136367186Y-113592917D01*
X136200457Y-112794518D01*
X135994151Y-112013391D01*
X135741291Y-111219362D01*
X135434901Y-110382254D01*
X135068001Y-109471893D01*
X134716613Y-108648456D01*
X133881677Y-106696537D01*
X133131284Y-104875443D01*
X132461605Y-103172871D01*
X131868813Y-101576517D01*
X131349079Y-100074079D01*
X130898577Y-98653253D01*
X130513478Y-97301735D01*
X130189954Y-96007221D01*
X129924177Y-94757409D01*
X129712321Y-93539995D01*
X129550555Y-92342675D01*
X129500725Y-91883518D01*
X129462998Y-91367375D01*
X129440728Y-90746163D01*
X129433095Y-90055995D01*
X129439283Y-89332988D01*
X129458471Y-88613256D01*
X129489842Y-87932913D01*
X129532577Y-87328074D01*
X129585858Y-86834853D01*
X129619994Y-86620877D01*
X129818229Y-85717509D01*
X130066512Y-84821888D01*
X130350963Y-83975977D01*
X130657701Y-83221741D01*
X130917136Y-82699275D01*
X131150660Y-82277210D01*
X130918259Y-81942321D01*
X130724987Y-81608971D01*
X130518263Y-81160790D01*
X130317986Y-80647821D01*
X130144055Y-80120108D01*
X130040555Y-79735008D01*
X129951619Y-79187307D01*
X129909814Y-78538983D01*
X129914274Y-77850631D01*
X129964135Y-77182849D01*
X130058534Y-76596233D01*
X130087020Y-76476969D01*
X130379482Y-75607459D01*
X130786210Y-74794372D01*
X131288861Y-74064250D01*
X131869088Y-73443631D01*
X132508546Y-72959058D01*
X132526153Y-72948295D01*
X132793060Y-72774813D01*
X132957203Y-72621613D01*
X133065020Y-72431306D01*
X133155499Y-72170547D01*
X133487294Y-71333178D01*
X133934971Y-70553069D01*
X134479617Y-69848886D01*
X135102320Y-69239294D01*
X135784164Y-68742961D01*
X136506237Y-68378552D01*
X137206336Y-68172677D01*
X137710136Y-68076934D01*
X138085988Y-67445291D01*
X138438429Y-66925685D01*
X138878303Y-66387176D01*
X139361974Y-65877065D01*
X139845809Y-65442652D01*
X140129243Y-65230369D01*
X140944013Y-64769461D01*
X141807817Y-64452494D01*
X142697320Y-64283473D01*
X143589186Y-64266402D01*
X144460081Y-64405287D01*
X144642089Y-64455830D01*
X145103132Y-64594067D01*
X145314937Y-64311677D01*
X146003944Y-63517582D01*
X146786159Y-62839300D01*
X147640387Y-62291627D01*
X148545432Y-61889357D01*
X148975085Y-61756653D01*
X149422177Y-61675241D01*
X149971760Y-61631009D01*
X150562252Y-61624048D01*
X151132073Y-61654449D01*
X151619640Y-61722303D01*
X151750582Y-61752557D01*
X152057660Y-61851754D01*
X152446920Y-62003316D01*
X152851982Y-62180708D01*
X153008826Y-62255537D01*
X153762434Y-62625728D01*
X154477919Y-61865672D01*
X155120895Y-61224675D01*
X155737613Y-60704172D01*
X156371022Y-60271342D01*
X157049257Y-59900642D01*
X157828280Y-59560580D01*
X158567828Y-59338036D01*
X159332090Y-59218054D01*
X160119125Y-59185406D01*
X161134464Y-59252247D01*
G37*
%TD*%
M02*
