%TF.GenerationSoftware,KiCad,Pcbnew,7.0.5-4d25ed1034~172~ubuntu22.04.1*%
%TF.CreationDate,2023-06-12T10:59:30-06:00*%
%TF.ProjectId,sao-2023-foot,73616f2d-3230-4323-932d-666f6f742e6b,rev?*%
%TF.SameCoordinates,Original*%
%TF.FileFunction,Soldermask,Top*%
%TF.FilePolarity,Negative*%
%FSLAX46Y46*%
G04 Gerber Fmt 4.6, Leading zero omitted, Abs format (unit mm)*
G04 Created by KiCad (PCBNEW 7.0.5-4d25ed1034~172~ubuntu22.04.1) date 2023-06-12 10:59:30*
%MOMM*%
%LPD*%
G01*
G04 APERTURE LIST*
G04 APERTURE END LIST*
%TO.C,G\u002A\u002A\u002A*%
G36*
X135566912Y-75990787D02*
G01*
X135934244Y-76172257D01*
X136265363Y-76480483D01*
X136539307Y-76906824D01*
X136663035Y-77202798D01*
X136745292Y-77546540D01*
X136796311Y-77982292D01*
X136815362Y-78456335D01*
X136801718Y-78914951D01*
X136754647Y-79304419D01*
X136694559Y-79524904D01*
X136434551Y-80014759D01*
X136111966Y-80359303D01*
X135735542Y-80552765D01*
X135314016Y-80589371D01*
X135131014Y-80557903D01*
X134817254Y-80405771D01*
X134511063Y-80120110D01*
X134245598Y-79733643D01*
X134192735Y-79631790D01*
X134077634Y-79372547D01*
X134002951Y-79126596D01*
X133957828Y-78839725D01*
X133931412Y-78457725D01*
X133924629Y-78292926D01*
X133927612Y-77952603D01*
X133930344Y-77640947D01*
X134005856Y-77118858D01*
X134158128Y-76700515D01*
X134394126Y-76359772D01*
X134457256Y-76293342D01*
X134807457Y-76042687D01*
X135184330Y-75944716D01*
X135566912Y-75990787D01*
G37*
G36*
X143557407Y-67989762D02*
G01*
X144068337Y-68160907D01*
X144110112Y-68182165D01*
X144560020Y-68505971D01*
X144926374Y-68948621D01*
X145210736Y-69488352D01*
X145414667Y-70103405D01*
X145539727Y-70772017D01*
X145587478Y-71472428D01*
X145559482Y-72182876D01*
X145457299Y-72881601D01*
X145282491Y-73546841D01*
X145036619Y-74156835D01*
X144721245Y-74689821D01*
X144337929Y-75124040D01*
X143888232Y-75437729D01*
X143580728Y-75560972D01*
X143277052Y-75643309D01*
X143053983Y-75672962D01*
X142833599Y-75653481D01*
X142608493Y-75605295D01*
X142179803Y-75422897D01*
X141773954Y-75097170D01*
X141412838Y-74652991D01*
X141118345Y-74115241D01*
X140982514Y-73757339D01*
X140859173Y-73231381D01*
X140782846Y-72604304D01*
X140765122Y-72163545D01*
X140756020Y-71937200D01*
X140781186Y-71291162D01*
X140859361Y-70734181D01*
X141071469Y-69981898D01*
X141360211Y-69334884D01*
X141714273Y-68802023D01*
X142122338Y-68392197D01*
X142573092Y-68114290D01*
X143055220Y-67977184D01*
X143557407Y-67989762D01*
G37*
G36*
X151114064Y-65434385D02*
G01*
X151609218Y-65662956D01*
X152066125Y-66040802D01*
X152472026Y-66550929D01*
X152814159Y-67176344D01*
X153079763Y-67900051D01*
X153143406Y-68136995D01*
X153233156Y-68657811D01*
X153281285Y-69285765D01*
X153288500Y-69965194D01*
X153255503Y-70640434D01*
X153183001Y-71255822D01*
X153098804Y-71660997D01*
X152832984Y-72456943D01*
X152488606Y-73164344D01*
X152078976Y-73763637D01*
X151617402Y-74235261D01*
X151131857Y-74552626D01*
X150636566Y-74706581D01*
X150088180Y-74733382D01*
X149542267Y-74634279D01*
X149228691Y-74509795D01*
X148750708Y-74181318D01*
X148325652Y-73705525D01*
X147963596Y-73097760D01*
X147674607Y-72373368D01*
X147559008Y-71965597D01*
X147477269Y-71491429D01*
X147430811Y-70905471D01*
X147418953Y-70260257D01*
X147419937Y-70231195D01*
X147441018Y-69608318D01*
X147496323Y-69002188D01*
X147584190Y-68494400D01*
X147605008Y-68411508D01*
X147878144Y-67597179D01*
X148225827Y-66894879D01*
X148638134Y-66313025D01*
X149105143Y-65860037D01*
X149616931Y-65544332D01*
X150163575Y-65374329D01*
X150735153Y-65358447D01*
X151114064Y-65434385D01*
G37*
G36*
X139005085Y-71903950D02*
G01*
X139427681Y-72159568D01*
X139781381Y-72538994D01*
X139839444Y-72625833D01*
X140052015Y-73012263D01*
X140199729Y-73412869D01*
X140291619Y-73868246D01*
X140336719Y-74418990D01*
X140345290Y-74899076D01*
X140342147Y-75352409D01*
X140328981Y-75679440D01*
X140299742Y-75922033D01*
X140248380Y-76122049D01*
X140168845Y-76321354D01*
X140126498Y-76412983D01*
X139875030Y-76847617D01*
X139583914Y-77190344D01*
X139283056Y-77407328D01*
X139225704Y-77432142D01*
X138898296Y-77499409D01*
X138517774Y-77495693D01*
X138163739Y-77426404D01*
X137983911Y-77347780D01*
X137631765Y-77057146D01*
X137305121Y-76647484D01*
X137041581Y-76167544D01*
X137003390Y-76076559D01*
X136925139Y-75857114D01*
X136872000Y-75634532D01*
X136839291Y-75368818D01*
X136822326Y-75019972D01*
X136816420Y-74547998D01*
X136816226Y-74478546D01*
X136817310Y-74206657D01*
X136818123Y-74002892D01*
X136829335Y-73656655D01*
X136854691Y-73401103D01*
X136899022Y-73197499D01*
X136967158Y-73007111D01*
X137012793Y-72902262D01*
X137220417Y-72545431D01*
X137492749Y-72218925D01*
X137788730Y-71964440D01*
X138067298Y-71823672D01*
X138077607Y-71820969D01*
X138544693Y-71786348D01*
X139005085Y-71903950D01*
G37*
G36*
X160770913Y-62968244D02*
G01*
X161447889Y-63203778D01*
X161471724Y-63215157D01*
X162030019Y-63575167D01*
X162525922Y-64079957D01*
X162952688Y-64715567D01*
X163303571Y-65468037D01*
X163571826Y-66323406D01*
X163750708Y-67267714D01*
X163825371Y-68086493D01*
X163823014Y-69186534D01*
X163710702Y-70268558D01*
X163496193Y-71315234D01*
X163187245Y-72309234D01*
X162791614Y-73233229D01*
X162317058Y-74069888D01*
X161771333Y-74801884D01*
X161162198Y-75411885D01*
X160497408Y-75882565D01*
X160284982Y-75995634D01*
X159696301Y-76210361D01*
X159067426Y-76309309D01*
X158451377Y-76288269D01*
X157991000Y-76177819D01*
X157351584Y-75860228D01*
X156786231Y-75393741D01*
X156297545Y-74781741D01*
X155888126Y-74027611D01*
X155560579Y-73134732D01*
X155508148Y-72950894D01*
X155441768Y-72692435D01*
X155392775Y-72450872D01*
X155358717Y-72194233D01*
X155337145Y-71890544D01*
X155325608Y-71507833D01*
X155321656Y-71014127D01*
X155322434Y-70743400D01*
X155322434Y-70500141D01*
X155325838Y-69926757D01*
X155333914Y-69462602D01*
X155349509Y-69099552D01*
X155375621Y-68804056D01*
X155415246Y-68542564D01*
X155471383Y-68281526D01*
X155547030Y-67987391D01*
X155550078Y-67976047D01*
X155897768Y-66880649D01*
X156318773Y-65920545D01*
X156823927Y-65074852D01*
X157424065Y-64322686D01*
X157472838Y-64269857D01*
X158105665Y-63682977D01*
X158756450Y-63258171D01*
X159420629Y-62996644D01*
X160093638Y-62899601D01*
X160770913Y-62968244D01*
G37*
%TD*%
M02*
