%TF.GenerationSoftware,KiCad,Pcbnew,7.0.5-4d25ed1034~172~ubuntu22.04.1*%
%TF.CreationDate,2023-06-12T10:59:30-06:00*%
%TF.ProjectId,sao-2023-foot,73616f2d-3230-4323-932d-666f6f742e6b,rev?*%
%TF.SameCoordinates,Original*%
%TF.FileFunction,Profile,NP*%
%FSLAX46Y46*%
G04 Gerber Fmt 4.6, Leading zero omitted, Abs format (unit mm)*
G04 Created by KiCad (PCBNEW 7.0.5-4d25ed1034~172~ubuntu22.04.1) date 2023-06-12 10:59:30*
%MOMM*%
%LPD*%
G01*
G04 APERTURE LIST*
%TA.AperFunction,Profile*%
%ADD10C,0.010000*%
%TD*%
G04 APERTURE END LIST*
%TO.C,G\u002A\u002A\u002A*%
D10*
X161237362Y-59218008D02*
X162173747Y-59420989D01*
X163049912Y-59767818D01*
X163884594Y-60266199D01*
X164696528Y-60923842D01*
X164826477Y-61045213D01*
X165457883Y-61710049D01*
X165989790Y-62420420D01*
X166462941Y-63232094D01*
X166551524Y-63406306D01*
X167027578Y-64542120D01*
X167373852Y-65762862D01*
X167591278Y-67047586D01*
X167680791Y-68375345D01*
X167643322Y-69725195D01*
X167479805Y-71076188D01*
X167191173Y-72407379D01*
X166778358Y-73697822D01*
X166242294Y-74926570D01*
X166019557Y-75349353D01*
X165580232Y-76085622D01*
X165097764Y-76771030D01*
X164527932Y-77467067D01*
X164358326Y-77659247D01*
X163866760Y-78208955D01*
X164028475Y-78461273D01*
X164139979Y-78654572D01*
X164294179Y-78946552D01*
X164462879Y-79283349D01*
X164512756Y-79386439D01*
X164893017Y-80359964D01*
X165151692Y-81423092D01*
X165288308Y-82548694D01*
X165302397Y-83709645D01*
X165193488Y-84878816D01*
X164961110Y-86029080D01*
X164645209Y-87027875D01*
X164316409Y-87820374D01*
X163932898Y-88585761D01*
X163483552Y-89337800D01*
X162957245Y-90090256D01*
X162342854Y-90856893D01*
X161629253Y-91651476D01*
X160805318Y-92487768D01*
X159859924Y-93379535D01*
X158781946Y-94340540D01*
X158624010Y-94477756D01*
X157882675Y-95126056D01*
X157260089Y-95686567D01*
X156742806Y-96175515D01*
X156317379Y-96609127D01*
X155970362Y-97003630D01*
X155688307Y-97375251D01*
X155457768Y-97740218D01*
X155265299Y-98114756D01*
X155097453Y-98515094D01*
X154960313Y-98899022D01*
X154835948Y-99323009D01*
X154754750Y-99750333D01*
X154705588Y-100247788D01*
X154690747Y-100516809D01*
X154687873Y-101244347D01*
X154757753Y-101897380D01*
X154912150Y-102507003D01*
X155162824Y-103104308D01*
X155521536Y-103720391D01*
X156000049Y-104386344D01*
X156293872Y-104755033D01*
X157455253Y-106223164D01*
X158477890Y-107622392D01*
X159369545Y-108966475D01*
X160137976Y-110269167D01*
X160790943Y-111544224D01*
X161336205Y-112805402D01*
X161781523Y-114066456D01*
X162028645Y-114921207D01*
X162318034Y-116294752D01*
X162475692Y-117705334D01*
X162501237Y-119119268D01*
X162394291Y-120502869D01*
X162154471Y-121822451D01*
X162108648Y-122006467D01*
X161675564Y-123376336D01*
X161110289Y-124650922D01*
X160417705Y-125824018D01*
X159602696Y-126889420D01*
X158670145Y-127840920D01*
X157624935Y-128672314D01*
X156471950Y-129377396D01*
X156197353Y-129518406D01*
X155061250Y-130014457D01*
X153835333Y-130416276D01*
X152499014Y-130729710D01*
X151194028Y-130939875D01*
X150681667Y-130998886D01*
X150194518Y-131040143D01*
X149757811Y-131063122D01*
X149396777Y-131067301D01*
X149136646Y-131052157D01*
X148576881Y-131052953D01*
X148262324Y-131060640D01*
X147878552Y-131051849D01*
X147458224Y-131027256D01*
X147034000Y-130987536D01*
X146680963Y-130940222D01*
X145325738Y-130645737D01*
X144051620Y-130205923D01*
X142864663Y-129625121D01*
X141770917Y-128907672D01*
X140776438Y-128057915D01*
X139887276Y-127080190D01*
X139109486Y-125978838D01*
X138662200Y-125190401D01*
X138251069Y-124335204D01*
X137903624Y-123471513D01*
X137614200Y-122574965D01*
X137377135Y-121621202D01*
X137186763Y-120585861D01*
X137037421Y-119444583D01*
X136923445Y-118173007D01*
X136880785Y-117528492D01*
X136802587Y-116359256D01*
X136712723Y-115327992D01*
X136604214Y-114404524D01*
X136470084Y-113558678D01*
X136303355Y-112760279D01*
X136097049Y-111979152D01*
X135844189Y-111185123D01*
X135537799Y-110348015D01*
X135170899Y-109437654D01*
X134819511Y-108614217D01*
X133984575Y-106662298D01*
X133234182Y-104841204D01*
X132564503Y-103138632D01*
X131971711Y-101542278D01*
X131451977Y-100039840D01*
X131001475Y-98619014D01*
X130616376Y-97267496D01*
X130292852Y-95972982D01*
X130027075Y-94723170D01*
X129815219Y-93505756D01*
X129653453Y-92308436D01*
X129603623Y-91849279D01*
X129565896Y-91333136D01*
X129543626Y-90711924D01*
X129535993Y-90021756D01*
X129542181Y-89298749D01*
X129561369Y-88579017D01*
X129592740Y-87898674D01*
X129635475Y-87293835D01*
X129688756Y-86800614D01*
X129722892Y-86586638D01*
X129921127Y-85683270D01*
X130169410Y-84787649D01*
X130453861Y-83941738D01*
X130760599Y-83187502D01*
X131020034Y-82665036D01*
X131253558Y-82242971D01*
X131021157Y-81908082D01*
X130827885Y-81574732D01*
X130621161Y-81126551D01*
X130420884Y-80613582D01*
X130246953Y-80085869D01*
X130143453Y-79700769D01*
X130054517Y-79153068D01*
X130012712Y-78504744D01*
X130017172Y-77816392D01*
X130067033Y-77148610D01*
X130161432Y-76561994D01*
X130189918Y-76442730D01*
X130482380Y-75573220D01*
X130889108Y-74760133D01*
X131391759Y-74030011D01*
X131971986Y-73409392D01*
X132611444Y-72924819D01*
X132629051Y-72914056D01*
X132895958Y-72740574D01*
X133060101Y-72587374D01*
X133167918Y-72397067D01*
X133258397Y-72136308D01*
X133590192Y-71298939D01*
X134037869Y-70518830D01*
X134582515Y-69814647D01*
X135205218Y-69205055D01*
X135887062Y-68708722D01*
X136609135Y-68344313D01*
X137309234Y-68138438D01*
X137813034Y-68042695D01*
X138188886Y-67411052D01*
X138541327Y-66891446D01*
X138981201Y-66352937D01*
X139464872Y-65842826D01*
X139948707Y-65408413D01*
X140232141Y-65196130D01*
X141046911Y-64735222D01*
X141910715Y-64418255D01*
X142800218Y-64249234D01*
X143692084Y-64232163D01*
X144562979Y-64371048D01*
X144744987Y-64421591D01*
X145206030Y-64559828D01*
X145417835Y-64277438D01*
X146106842Y-63483343D01*
X146889057Y-62805061D01*
X147743285Y-62257388D01*
X148648330Y-61855118D01*
X149077983Y-61722414D01*
X149525075Y-61641002D01*
X150074658Y-61596770D01*
X150665150Y-61589809D01*
X151234971Y-61620210D01*
X151722538Y-61688064D01*
X151853480Y-61718318D01*
X152160558Y-61817515D01*
X152549818Y-61969077D01*
X152954880Y-62146469D01*
X153111724Y-62221298D01*
X153865332Y-62591489D01*
X154580817Y-61831433D01*
X155223793Y-61190436D01*
X155840511Y-60669933D01*
X156473920Y-60237103D01*
X157152155Y-59866403D01*
X157931178Y-59526341D01*
X158670726Y-59303797D01*
X159434988Y-59183815D01*
X160222023Y-59151167D01*
X161237362Y-59218008D01*
%TD*%
M02*
